<svg xmlns="http://www.w3.org/2000/svg" viewBox="0 0 64 64">
  <defs>
    <linearGradient id="background" x1="8" y1="6" x2="56" y2="58" gradientUnits="userSpaceOnUse">
      <stop stop-color="#2563eb"/>
      <stop offset="1" stop-color="#0f172a"/>
    </linearGradient>
  </defs>
  <rect width="64" height="64" rx="16" fill="url(#background)"/>
  <path
    fill="#ffffff"
    d="M28.1 42.9a15.8 15.8 0 0 1-6.1 1.2c-8.3 0-13.6-5-13.6-12.1 0-7.3 5.6-12.2 13.9-12.2 2.2 0 4.3.4 5.9 1.1l-1.9 5.5a10.1 10.1 0 0 0-3.8-.7c-4.1 0-6.8 2.4-6.8 6.1 0 4 3 6.3 6.9 6.3 1.6 0 2.8-.3 3.9-.7l1.6 5.5Zm9.8.7-8.7-23.3h7.8l3.2 10.8c.9 3 1.5 5.5 2.1 8.2h.2c.6-2.8 1.3-5.3 2.1-8.2l3.1-10.8h7.5l-8.8 23.3h-8.5Z"
  />
</svg>
